<?xml version="1.0" encoding="UTF-8"?>
<svg version="1.1" xmlns="http://www.w3.org/2000/svg" width="56" height="56">
<path d="M0 0 C3.00387168 1.05954973 4.46235446 2.27974886 6.3581543 4.83178711 C5.79252667 9.38903637 2.74869339 11.8385633 -0.3918457 14.90991211 C-0.96515625 15.48134949 -1.5384668 16.05278687 -2.12915039 16.64154053 C-3.33952218 17.84519993 -4.55348155 19.04526103 -5.77075195 20.24194336 C-7.64189705 22.08183759 -9.50206975 23.93228 -11.3605957 25.78491211 C-12.53705636 26.95220668 -13.71411905 28.11889487 -14.8918457 29.28491211 C-15.45226562 29.84108215 -16.01268555 30.3972522 -16.59008789 30.97027588 C-20.52468331 34.83178711 -20.52468331 34.83178711 -21.6418457 34.83178711 C-22.93376523 29.35435054 -23.55756067 24.23158881 -21.6418457 18.83178711 C-18.97713369 14.89087203 -15.83951948 11.59927976 -12.4543457 8.26928711 C-11.16016724 6.99251099 -11.16016724 6.99251099 -9.83984375 5.68994141 C-3.45126794 -0.21975082 -3.45126794 -0.21975082 0 0 Z " fill="#025159" transform="translate(28.641845703125,5.168212890625)"/>
<path d="M0 0 C5.04569785 2.30433445 8.91757516 5.35121476 12 10 C12.94370528 14.38679968 12.76571186 18.53910671 12.5 23 C12.46390625 24.15628906 12.4278125 25.31257813 12.390625 26.50390625 C12.29688873 29.33942843 12.16584169 32.16793416 12 35 C8.7 35 5.4 35 2 35 C2.0309375 33.081875 2.0309375 33.081875 2.0625 31.125 C2.27367622 21.64368872 2.27367622 21.64368872 -0.84765625 12.95703125 C-2.80796158 11.05895783 -4.69489013 9.45447707 -7 8 C-6.02133662 6.85373678 -5.04205413 5.70800212 -4.0625 4.5625 C-3.51722656 3.92441406 -2.97195312 3.28632813 -2.41015625 2.62890625 C-1.63204305 1.73008851 -0.84063472 0.84063472 0 0 Z " fill="#025159" transform="translate(37,14)"/>
<path d="M0 0 C4.62 0 9.24 0 14 0 C14 3.3 14 6.6 14 10 C9.38 10 4.76 10 0 10 C0 6.7 0 3.4 0 0 Z " fill="#025159" transform="translate(21,39)"/>
<path d="M0 0 C0 4.29 0 8.58 0 13 C-3.3 13 -6.6 13 -10 13 C-10 8 -10 8 -8.3203125 5.76171875 C-7.23363281 4.73498047 -7.23363281 4.73498047 -6.125 3.6875 C-5.40570312 2.99011719 -4.68640625 2.29273438 -3.9453125 1.57421875 C-2 0 -2 0 0 0 Z " fill="#025159" transform="translate(17,36)"/>
</svg>
